HIERARCHY
ROOT Hips
{
  OFFSET 0 0 0
  CHANNELS 6 Xposition Yposition Zposition Zrotation Yrotation Xrotation
  JOINT LeftThigh
  {
    OFFSET 8.409438 0 -5.917753
    CHANNELS 3 Zrotation Yrotation Xrotation
    JOINT LeftLeg
    {
      OFFSET 0 0 -42.358652
      CHANNELS 3 Zrotation Yrotation Xrotation
      JOINT LeftFoot
      {
        OFFSET 0 0 -39.357303
        CHANNELS 3 Zrotation Yrotation Xrotation
      }
    }
  }
  JOINT RightThigh
  {
    OFFSET -8.409438 0 -5.917753
    CHANNELS 3 Zrotation Yrotation Xrotation
    JOINT RightLeg
    {
      OFFSET 0 0 -42.358652
      CHANNELS 3 Zrotation Yrotation Xrotation
      JOINT RightFoot
      {
        OFFSET 0 0 -39.357303
        CHANNELS 3 Zrotation Yrotation Xrotation
      }
    }
  }
  JOINT SpineLow
  {
    OFFSET 0 0 4.719101
    CHANNELS 3 Zrotation Yrotation Xrotation
    JOINT SpineMid
    {
      OFFSET 0 0 12.899191
      CHANNELS 3 Zrotation Yrotation Xrotation
      JOINT Chest
      {
        OFFSET 0 0 12.899191
        CHANNELS 3 Zrotation Yrotation Xrotation
        JOINT LeftShoulder
        {
          OFFSET 7.550562 1.41573 9.438202
          CHANNELS 3 Zrotation Yrotation Xrotation
          JOINT LeftArm
          {
            OFFSET 9.155056 0 4.247191
            CHANNELS 3 Zrotation Yrotation Xrotation
            JOINT LeftForearm
            {
              OFFSET 0 0 25.771955
              CHANNELS 3 Zrotation Yrotation Xrotation
              JOINT LeftHand
              {
                OFFSET 0 0 25.197169
                CHANNELS 3 Zrotation Yrotation Xrotation
              }
            }
          }
        }
        JOINT RightShoulder
        {
          OFFSET -7.550562 1.41573 9.438202
          CHANNELS 3 Zrotation Yrotation Xrotation
          JOINT RightArm
          {
            OFFSET -9.155056 0 4.247191
            CHANNELS 3 Zrotation Yrotation Xrotation
            JOINT RightForearm
            {
              OFFSET 0 0 -25.771955
              CHANNELS 3 Zrotation Yrotation Xrotation
              JOINT RightHand
              {
                OFFSET 0 0 -25.197169
                CHANNELS 3 Zrotation Yrotation Xrotation
              }
            }
          }
        }
        JOINT Neck
        {
          OFFSET 0 0 15.101124
          CHANNELS 3 Zrotation Yrotation Xrotation
          JOINT Head
          {
            OFFSET 0 0 11.325843
            CHANNELS 3 Zrotation Yrotation Xrotation
            End Site
            {
              OFFSET 0 0 14.157303
            }
          }
        }
      }
    }
  }
}
MOTION
Frames: 11
Frame Time: 0.0
0.0  93.25843  0.0  -2.249455  -12.789423  -87.245155  14.739819  -12.580697  0.193119  0.499889  -1.591298  11.781884  3.853967  1.11659  1.047853  -11.138448  3.635867  -10.87626  3.113757  6.605927  9.162728  -1.090974  1.237701  -0.748113  6.398088  0.250149  -1.220179  17.471969  0.999245  -3.242837  17.47197  0.999244  -3.242837  -1.946044  8.561667  7.103723  173.389527  16.19642  -176.772298  -5.261231  30.34943  109.226997  58.7227  -4.506624  6.328928  8.803481  -15.468593  3.045222  -146.549956  62.253899  158.69147  -55.723273  40.901183  -85.210177  85.856111  -8.436031  41.12394  -18.513963  2.511426  12.963078  -13.943988  1.493038  9.807589  
0.0  93.25843  0.0  -2.386253  -15.603685  -87.314066  15.464538  -12.639745  0.482664  -0.320578  -1.358263  12.263278  4.480176  1.355677  1.184137  -9.905711  3.493715  -10.737385  3.494834  6.527347  8.774385  -0.953968  1.135618  -0.736748  6.446404  0.239429  -1.261782  17.603738  0.983522  -3.357576  17.603738  0.983522  -3.357576  0.757861  7.549658  9.062313  174.076941  13.173599  -178.06314  -6.753089  31.920893  107.631412  58.359393  -3.419934  5.997109  10.083041  -14.193015  1.741395  -146.840127  60.10767  158.277903  -53.652954  43.381528  -81.711912  87.511544  -10.376023  40.000094  -17.189823  2.418544  13.059995  -12.949175  1.448498  9.870891  
0.0  93.25843  0.0  -2.518275  -17.861604  -87.361518  16.049311  -12.85709  0.795364  -1.348959  -0.861515  12.50495  5.932542  1.786914  1.866052  -9.101016  3.337514  -10.624967  4.176046  6.360429  8.484217  -0.894134  1.081037  -0.722155  6.419792  0.146745  -1.340033  17.534186  0.75161  -3.594627  17.534185  0.75161  -3.594627  3.537829  7.160551  11.035985  173.842668  10.33959  -179.211075  -8.057496  33.574885  106.326279  58.26328  -2.649733  4.258121  11.191567  -12.662345  0.905498  -147.718225  57.530012  160.050933  -53.522544  43.336514  -80.154735  90.268319  -13.152945  37.425285  -15.884718  2.623324  13.105873  -11.974271  1.62888  9.903861  
0.0  93.25843  0.0  -2.631536  -19.614441  -87.454631  16.364742  -13.171462  1.05641  -1.841128  -0.364171  12.84423  6.790025  1.909308  2.077442  -8.470583  3.164143  -10.480052  4.805223  6.192576  8.302855  -0.924865  1.102094  -0.707022  6.37858  0.074344  -1.391436  17.424654  0.56662  -3.753582  17.424653  0.56662  -3.753582  5.50756  7.312021  12.551457  173.441039  8.264675  -179.93909  -10.057275  35.658809  104.183502  58.273764  -2.088875  2.989991  11.875444  -11.318502  0.370581  -146.794188  56.938985  160.949707  -52.348532  46.049667  -78.762683  92.848729  -15.091906  34.938131  -14.847743  2.73423  12.954312  -11.197645  1.737966  9.787215  
0.0  93.25843  0.0  -2.779133  -20.883995  -87.55061  16.502391  -13.410506  1.156698  -1.414239  -0.13263  13.395011  7.16803  2.069788  2.258008  -7.812368  2.915816  -10.302572  5.03518  6.179012  8.228809  -0.962967  1.130552  -0.699351  6.356557  0.078853  -1.406151  17.364049  0.581451  -3.792587  17.36405  0.581451  -3.792587  6.560553  7.837992  13.401143  172.947665  7.064492  179.651137  -12.054726  37.890335  101.716284  59.169687  -1.890539  2.842557  11.698587  -10.298766  0.076513  -145.742607  56.025957  162.00003  -52.037488  47.632234  -78.269529  93.292612  -15.904715  34.199368  -14.24995  2.54935  12.654634  -10.743972  1.6187  9.555049  
0.0  93.25843  0.0  -3.129445  -21.665243  -87.657615  16.689246  -13.83325  1.145697  -0.540559  -0.07147  14.034889  7.081996  2.122788  2.261447  -7.132739  2.504188  -10.013988  4.91355  6.297677  8.267335  -0.938754  1.134338  -0.688326  6.308447  0.075498  -1.414134  17.232674  0.571694  -3.815719  17.232675  0.571694  -3.81572  6.86369  8.421823  13.95516  172.550363  5.988535  179.609667  -13.371374  38.746472  99.808974  60.192644  -3.121853  3.330108  11.428761  -9.641557  -0.216848  -145.849197  54.52305  162.217647  -52.294046  46.935436  -77.939049  92.589511  -15.970797  34.988043  -13.844877  2.312857  12.474437  -10.43463  1.453539  9.412708  
0.0  93.25843  0.0  -3.713621  -21.831555  -87.536806  17.094935  -14.498941  0.875377  0.103077  -0.100547  14.515647  7.037275  2.269024  2.38244  -6.895267  1.856631  -9.829295  4.721766  6.422513  8.334962  -1.122687  1.139866  -0.707676  6.155961  0.022976  -1.47197  16.818331  0.435178  -3.987813  16.818332  0.435178  -3.987813  7.047266  9.078173  14.235048  169.589967  4.468745  179.978321  -17.772395  38.271417  97.968814  60.533532  -3.716012  4.114616  11.493848  -9.266788  -0.312414  -146.047709  53.061877  162.559642  -52.905557  44.690038  -78.529655  92.422737  -16.107825  35.792029  -13.42134  2.228571  12.578806  -10.115704  1.396578  9.487306  
0.0  93.25843  0.0  -3.865041  -21.944983  -87.568079  18.149561  -14.792375  0.739714  0.21096  -0.166931  14.661076  6.820427  2.317018  2.38184  -6.504721  1.644548  -9.640813  4.780545  6.561054  8.461999  -1.177817  1.153834  -0.68238  5.990615  -0.003026  -1.484658  16.367958  0.357855  -4.030382  16.367958  0.357855  -4.030382  7.332228  9.795306  14.12705  169.364274  3.953619  -179.898119  -19.553857  37.914254  97.205986  58.959079  -2.779247  4.636361  12.114818  -8.993963  0.00867  -145.705185  51.882932  163.76599  -53.798344  43.762598  -79.30231  92.464513  -15.736122  35.505766  -12.991318  2.322883  12.835597  -9.796085  1.470769  9.679967  
0.0  93.25843  0.0  -4.000462  -22.329399  -87.461337  20.042776  -14.938382  0.610819  -0.121888  -0.260653  14.488633  6.790533  2.347169  2.48087  -5.763626  1.415579  -9.616967  4.956962  6.669487  8.702302  -1.360952  1.13298  -0.675194  5.903532  -0.001192  -1.507001  16.129707  0.362982  -4.091404  16.129707  0.362982  -4.091404  7.41944  10.364358  13.657803  169.71405  4.69133  -179.72602  -20.633953  37.881486  96.593074  57.776754  -1.928799  4.751014  12.578091  -9.01614  0.476342  -144.90058  51.045158  165.191665  -54.942824  44.083867  -80.415027  92.728122  -15.792815  34.860885  -12.721496  2.403222  13.163822  -9.596792  1.52993  9.926565  
0.0  93.25843  0.0  -4.273476  -22.906847  -87.155453  22.012085  -15.136393  0.282118  -0.557304  -0.345199  14.210147  6.791382  2.344265  2.507127  -4.680507  1.078815  -9.77495  5.160625  6.734187  9.026513  -1.42528  1.140965  -0.671487  5.837541  -0.031163  -1.579285  15.950618  0.294947  -4.295482  15.95062  0.294947  -4.295482  7.566471  10.807591  13.052192  170.47748  5.859577  -179.562984  -20.663869  37.878983  96.277646  57.229604  -2.07149  4.676761  13.021674  -9.001643  0.933076  -143.924518  50.630476  166.414734  -55.990186  44.548433  -81.463521  92.759268  -16.065566  34.197184  -12.392627  2.627164  13.58805  -9.356771  1.69657  10.247545  
0.0  93.25843  0.0  -4.53282  -23.011009  -86.971017  23.099872  -15.350069  0.070771  -0.558758  -0.492242  14.095731  6.730396  2.340711  2.447135  -3.756225  0.830306  -9.731025  5.559343  6.795624  9.368326  -1.081588  1.246356  -0.613992  5.733331  -0.068322  -1.636108  15.667888  0.200748  -4.459447  15.667887  0.200748  -4.459447  7.442375  11.08735  12.373258  170.316796  6.949253  -179.166528  -21.20253  37.332381  95.930318  56.829533  -2.560874  4.763896  13.345572  -8.977839  1.238508  -143.250785  50.377024  167.174009  -56.667414  44.221374  -82.110484  92.81449  -15.968143  33.634438  -12.155107  2.919684  13.987672  -9.186937  1.913568  10.55153  
